%TF.GenerationSoftware,KiCad,Pcbnew,10.0.3*%
%TF.CreationDate,2026-09-18T19:19:04+05:30*%
%TF.ProjectId,satelite,73617465-6c69-4746-952e-6b696361645f,rev?*%
%TF.SameCoordinates,Original*%
%TF.FileFunction,Legend,Top*%
%TF.FilePolarity,Positive*%
%FSLAX46Y46*%
G04 Gerber Fmt 4.6, Leading zero omitted, Abs format (unit mm)*
G04 Created by KiCad (PCBNEW 10.0.3) date 2026-09-18 19:19:04*
%MOMM*%
%LPD*%
G01*
G04 APERTURE LIST*
%ADD10C,0.150000*%
%ADD11C,0.250000*%
%ADD12C,0.060000*%
%ADD13C,0.120000*%
G04 APERTURE END LIST*
D10*
X101812969Y-137369819D02*
X101336779Y-137369819D01*
X101336779Y-137369819D02*
X101336779Y-136369819D01*
X102146303Y-137369819D02*
X102146303Y-136369819D01*
X102479636Y-136369819D02*
X102812969Y-137369819D01*
X102812969Y-137369819D02*
X103146302Y-136369819D01*
X103479636Y-136846009D02*
X103812969Y-136846009D01*
X103955826Y-137369819D02*
X103479636Y-137369819D01*
X103479636Y-137369819D02*
X103479636Y-136369819D01*
X103479636Y-136369819D02*
X103955826Y-136369819D01*
X104146303Y-137465057D02*
X104908207Y-137465057D01*
X105003446Y-136369819D02*
X105336779Y-137369819D01*
X105336779Y-137369819D02*
X105670112Y-136369819D01*
X106527255Y-137369819D02*
X105955827Y-137369819D01*
X106241541Y-137369819D02*
X106241541Y-136369819D01*
X106241541Y-136369819D02*
X106146303Y-136512676D01*
X106146303Y-136512676D02*
X106051065Y-136607914D01*
X106051065Y-136607914D02*
X105955827Y-136655533D01*
X140998095Y-79454819D02*
X140998095Y-80264342D01*
X140998095Y-80264342D02*
X141045714Y-80359580D01*
X141045714Y-80359580D02*
X141093333Y-80407200D01*
X141093333Y-80407200D02*
X141188571Y-80454819D01*
X141188571Y-80454819D02*
X141379047Y-80454819D01*
X141379047Y-80454819D02*
X141474285Y-80407200D01*
X141474285Y-80407200D02*
X141521904Y-80359580D01*
X141521904Y-80359580D02*
X141569523Y-80264342D01*
X141569523Y-80264342D02*
X141569523Y-79454819D01*
X142569523Y-80454819D02*
X141998095Y-80454819D01*
X142283809Y-80454819D02*
X142283809Y-79454819D01*
X142283809Y-79454819D02*
X142188571Y-79597676D01*
X142188571Y-79597676D02*
X142093333Y-79692914D01*
X142093333Y-79692914D02*
X141998095Y-79740533D01*
X103833333Y-112429580D02*
X103785714Y-112477200D01*
X103785714Y-112477200D02*
X103642857Y-112524819D01*
X103642857Y-112524819D02*
X103547619Y-112524819D01*
X103547619Y-112524819D02*
X103404762Y-112477200D01*
X103404762Y-112477200D02*
X103309524Y-112381961D01*
X103309524Y-112381961D02*
X103261905Y-112286723D01*
X103261905Y-112286723D02*
X103214286Y-112096247D01*
X103214286Y-112096247D02*
X103214286Y-111953390D01*
X103214286Y-111953390D02*
X103261905Y-111762914D01*
X103261905Y-111762914D02*
X103309524Y-111667676D01*
X103309524Y-111667676D02*
X103404762Y-111572438D01*
X103404762Y-111572438D02*
X103547619Y-111524819D01*
X103547619Y-111524819D02*
X103642857Y-111524819D01*
X103642857Y-111524819D02*
X103785714Y-111572438D01*
X103785714Y-111572438D02*
X103833333Y-111620057D01*
X104690476Y-111524819D02*
X104500000Y-111524819D01*
X104500000Y-111524819D02*
X104404762Y-111572438D01*
X104404762Y-111572438D02*
X104357143Y-111620057D01*
X104357143Y-111620057D02*
X104261905Y-111762914D01*
X104261905Y-111762914D02*
X104214286Y-111953390D01*
X104214286Y-111953390D02*
X104214286Y-112334342D01*
X104214286Y-112334342D02*
X104261905Y-112429580D01*
X104261905Y-112429580D02*
X104309524Y-112477200D01*
X104309524Y-112477200D02*
X104404762Y-112524819D01*
X104404762Y-112524819D02*
X104595238Y-112524819D01*
X104595238Y-112524819D02*
X104690476Y-112477200D01*
X104690476Y-112477200D02*
X104738095Y-112429580D01*
X104738095Y-112429580D02*
X104785714Y-112334342D01*
X104785714Y-112334342D02*
X104785714Y-112096247D01*
X104785714Y-112096247D02*
X104738095Y-112001009D01*
X104738095Y-112001009D02*
X104690476Y-111953390D01*
X104690476Y-111953390D02*
X104595238Y-111905771D01*
X104595238Y-111905771D02*
X104404762Y-111905771D01*
X104404762Y-111905771D02*
X104309524Y-111953390D01*
X104309524Y-111953390D02*
X104261905Y-112001009D01*
X104261905Y-112001009D02*
X104214286Y-112096247D01*
X104231009Y-68880952D02*
X104278628Y-68738095D01*
X104278628Y-68738095D02*
X104326247Y-68690476D01*
X104326247Y-68690476D02*
X104421485Y-68642857D01*
X104421485Y-68642857D02*
X104564342Y-68642857D01*
X104564342Y-68642857D02*
X104659580Y-68690476D01*
X104659580Y-68690476D02*
X104707200Y-68738095D01*
X104707200Y-68738095D02*
X104754819Y-68833333D01*
X104754819Y-68833333D02*
X104754819Y-69214285D01*
X104754819Y-69214285D02*
X103754819Y-69214285D01*
X103754819Y-69214285D02*
X103754819Y-68880952D01*
X103754819Y-68880952D02*
X103802438Y-68785714D01*
X103802438Y-68785714D02*
X103850057Y-68738095D01*
X103850057Y-68738095D02*
X103945295Y-68690476D01*
X103945295Y-68690476D02*
X104040533Y-68690476D01*
X104040533Y-68690476D02*
X104135771Y-68738095D01*
X104135771Y-68738095D02*
X104183390Y-68785714D01*
X104183390Y-68785714D02*
X104231009Y-68880952D01*
X104231009Y-68880952D02*
X104231009Y-69214285D01*
X103754819Y-68309523D02*
X103754819Y-67642857D01*
X103754819Y-67642857D02*
X104754819Y-68309523D01*
X104754819Y-68309523D02*
X104754819Y-67642857D01*
X104754819Y-66738095D02*
X104754819Y-67309523D01*
X104754819Y-67023809D02*
X103754819Y-67023809D01*
X103754819Y-67023809D02*
X103897676Y-67119047D01*
X103897676Y-67119047D02*
X103992914Y-67214285D01*
X103992914Y-67214285D02*
X104040533Y-67309523D01*
X109033866Y-72190951D02*
X109033866Y-71429047D01*
X109414819Y-71809999D02*
X108652914Y-71809999D01*
X121333333Y-130524819D02*
X121000000Y-130048628D01*
X120761905Y-130524819D02*
X120761905Y-129524819D01*
X120761905Y-129524819D02*
X121142857Y-129524819D01*
X121142857Y-129524819D02*
X121238095Y-129572438D01*
X121238095Y-129572438D02*
X121285714Y-129620057D01*
X121285714Y-129620057D02*
X121333333Y-129715295D01*
X121333333Y-129715295D02*
X121333333Y-129858152D01*
X121333333Y-129858152D02*
X121285714Y-129953390D01*
X121285714Y-129953390D02*
X121238095Y-130001009D01*
X121238095Y-130001009D02*
X121142857Y-130048628D01*
X121142857Y-130048628D02*
X120761905Y-130048628D01*
X121714286Y-129620057D02*
X121761905Y-129572438D01*
X121761905Y-129572438D02*
X121857143Y-129524819D01*
X121857143Y-129524819D02*
X122095238Y-129524819D01*
X122095238Y-129524819D02*
X122190476Y-129572438D01*
X122190476Y-129572438D02*
X122238095Y-129620057D01*
X122238095Y-129620057D02*
X122285714Y-129715295D01*
X122285714Y-129715295D02*
X122285714Y-129810533D01*
X122285714Y-129810533D02*
X122238095Y-129953390D01*
X122238095Y-129953390D02*
X121666667Y-130524819D01*
X121666667Y-130524819D02*
X122285714Y-130524819D01*
X104416666Y-98904819D02*
X104416666Y-99619104D01*
X104416666Y-99619104D02*
X104369047Y-99761961D01*
X104369047Y-99761961D02*
X104273809Y-99857200D01*
X104273809Y-99857200D02*
X104130952Y-99904819D01*
X104130952Y-99904819D02*
X104035714Y-99904819D01*
X104845238Y-99000057D02*
X104892857Y-98952438D01*
X104892857Y-98952438D02*
X104988095Y-98904819D01*
X104988095Y-98904819D02*
X105226190Y-98904819D01*
X105226190Y-98904819D02*
X105321428Y-98952438D01*
X105321428Y-98952438D02*
X105369047Y-99000057D01*
X105369047Y-99000057D02*
X105416666Y-99095295D01*
X105416666Y-99095295D02*
X105416666Y-99190533D01*
X105416666Y-99190533D02*
X105369047Y-99333390D01*
X105369047Y-99333390D02*
X104797619Y-99904819D01*
X104797619Y-99904819D02*
X105416666Y-99904819D01*
X151158333Y-81884819D02*
X150825000Y-81408628D01*
X150586905Y-81884819D02*
X150586905Y-80884819D01*
X150586905Y-80884819D02*
X150967857Y-80884819D01*
X150967857Y-80884819D02*
X151063095Y-80932438D01*
X151063095Y-80932438D02*
X151110714Y-80980057D01*
X151110714Y-80980057D02*
X151158333Y-81075295D01*
X151158333Y-81075295D02*
X151158333Y-81218152D01*
X151158333Y-81218152D02*
X151110714Y-81313390D01*
X151110714Y-81313390D02*
X151063095Y-81361009D01*
X151063095Y-81361009D02*
X150967857Y-81408628D01*
X150967857Y-81408628D02*
X150586905Y-81408628D01*
X151491667Y-80884819D02*
X152110714Y-80884819D01*
X152110714Y-80884819D02*
X151777381Y-81265771D01*
X151777381Y-81265771D02*
X151920238Y-81265771D01*
X151920238Y-81265771D02*
X152015476Y-81313390D01*
X152015476Y-81313390D02*
X152063095Y-81361009D01*
X152063095Y-81361009D02*
X152110714Y-81456247D01*
X152110714Y-81456247D02*
X152110714Y-81694342D01*
X152110714Y-81694342D02*
X152063095Y-81789580D01*
X152063095Y-81789580D02*
X152015476Y-81837200D01*
X152015476Y-81837200D02*
X151920238Y-81884819D01*
X151920238Y-81884819D02*
X151634524Y-81884819D01*
X151634524Y-81884819D02*
X151539286Y-81837200D01*
X151539286Y-81837200D02*
X151491667Y-81789580D01*
X113509819Y-83103333D02*
X114224104Y-83103333D01*
X114224104Y-83103333D02*
X114366961Y-83150952D01*
X114366961Y-83150952D02*
X114462200Y-83246190D01*
X114462200Y-83246190D02*
X114509819Y-83389047D01*
X114509819Y-83389047D02*
X114509819Y-83484285D01*
X114509819Y-82103333D02*
X114509819Y-82674761D01*
X114509819Y-82389047D02*
X113509819Y-82389047D01*
X113509819Y-82389047D02*
X113652676Y-82484285D01*
X113652676Y-82484285D02*
X113747914Y-82579523D01*
X113747914Y-82579523D02*
X113795533Y-82674761D01*
X132108333Y-133429580D02*
X132060714Y-133477200D01*
X132060714Y-133477200D02*
X131917857Y-133524819D01*
X131917857Y-133524819D02*
X131822619Y-133524819D01*
X131822619Y-133524819D02*
X131679762Y-133477200D01*
X131679762Y-133477200D02*
X131584524Y-133381961D01*
X131584524Y-133381961D02*
X131536905Y-133286723D01*
X131536905Y-133286723D02*
X131489286Y-133096247D01*
X131489286Y-133096247D02*
X131489286Y-132953390D01*
X131489286Y-132953390D02*
X131536905Y-132762914D01*
X131536905Y-132762914D02*
X131584524Y-132667676D01*
X131584524Y-132667676D02*
X131679762Y-132572438D01*
X131679762Y-132572438D02*
X131822619Y-132524819D01*
X131822619Y-132524819D02*
X131917857Y-132524819D01*
X131917857Y-132524819D02*
X132060714Y-132572438D01*
X132060714Y-132572438D02*
X132108333Y-132620057D01*
X132489286Y-132620057D02*
X132536905Y-132572438D01*
X132536905Y-132572438D02*
X132632143Y-132524819D01*
X132632143Y-132524819D02*
X132870238Y-132524819D01*
X132870238Y-132524819D02*
X132965476Y-132572438D01*
X132965476Y-132572438D02*
X133013095Y-132620057D01*
X133013095Y-132620057D02*
X133060714Y-132715295D01*
X133060714Y-132715295D02*
X133060714Y-132810533D01*
X133060714Y-132810533D02*
X133013095Y-132953390D01*
X133013095Y-132953390D02*
X132441667Y-133524819D01*
X132441667Y-133524819D02*
X133060714Y-133524819D01*
X166104819Y-78188094D02*
X165104819Y-78188094D01*
X165104819Y-78188094D02*
X165104819Y-77949999D01*
X165104819Y-77949999D02*
X165152438Y-77807142D01*
X165152438Y-77807142D02*
X165247676Y-77711904D01*
X165247676Y-77711904D02*
X165342914Y-77664285D01*
X165342914Y-77664285D02*
X165533390Y-77616666D01*
X165533390Y-77616666D02*
X165676247Y-77616666D01*
X165676247Y-77616666D02*
X165866723Y-77664285D01*
X165866723Y-77664285D02*
X165961961Y-77711904D01*
X165961961Y-77711904D02*
X166057200Y-77807142D01*
X166057200Y-77807142D02*
X166104819Y-77949999D01*
X166104819Y-77949999D02*
X166104819Y-78188094D01*
X165200057Y-77235713D02*
X165152438Y-77188094D01*
X165152438Y-77188094D02*
X165104819Y-77092856D01*
X165104819Y-77092856D02*
X165104819Y-76854761D01*
X165104819Y-76854761D02*
X165152438Y-76759523D01*
X165152438Y-76759523D02*
X165200057Y-76711904D01*
X165200057Y-76711904D02*
X165295295Y-76664285D01*
X165295295Y-76664285D02*
X165390533Y-76664285D01*
X165390533Y-76664285D02*
X165533390Y-76711904D01*
X165533390Y-76711904D02*
X166104819Y-77283332D01*
X166104819Y-77283332D02*
X166104819Y-76664285D01*
X163387704Y-73678571D02*
X163387704Y-73221428D01*
X163387704Y-73450000D02*
X164187704Y-73450000D01*
X164187704Y-73450000D02*
X164073419Y-73373809D01*
X164073419Y-73373809D02*
X163997228Y-73297619D01*
X163997228Y-73297619D02*
X163959133Y-73221428D01*
X111929580Y-95441666D02*
X111977200Y-95489285D01*
X111977200Y-95489285D02*
X112024819Y-95632142D01*
X112024819Y-95632142D02*
X112024819Y-95727380D01*
X112024819Y-95727380D02*
X111977200Y-95870237D01*
X111977200Y-95870237D02*
X111881961Y-95965475D01*
X111881961Y-95965475D02*
X111786723Y-96013094D01*
X111786723Y-96013094D02*
X111596247Y-96060713D01*
X111596247Y-96060713D02*
X111453390Y-96060713D01*
X111453390Y-96060713D02*
X111262914Y-96013094D01*
X111262914Y-96013094D02*
X111167676Y-95965475D01*
X111167676Y-95965475D02*
X111072438Y-95870237D01*
X111072438Y-95870237D02*
X111024819Y-95727380D01*
X111024819Y-95727380D02*
X111024819Y-95632142D01*
X111024819Y-95632142D02*
X111072438Y-95489285D01*
X111072438Y-95489285D02*
X111120057Y-95441666D01*
X111024819Y-94536904D02*
X111024819Y-95013094D01*
X111024819Y-95013094D02*
X111501009Y-95060713D01*
X111501009Y-95060713D02*
X111453390Y-95013094D01*
X111453390Y-95013094D02*
X111405771Y-94917856D01*
X111405771Y-94917856D02*
X111405771Y-94679761D01*
X111405771Y-94679761D02*
X111453390Y-94584523D01*
X111453390Y-94584523D02*
X111501009Y-94536904D01*
X111501009Y-94536904D02*
X111596247Y-94489285D01*
X111596247Y-94489285D02*
X111834342Y-94489285D01*
X111834342Y-94489285D02*
X111929580Y-94536904D01*
X111929580Y-94536904D02*
X111977200Y-94584523D01*
X111977200Y-94584523D02*
X112024819Y-94679761D01*
X112024819Y-94679761D02*
X112024819Y-94917856D01*
X112024819Y-94917856D02*
X111977200Y-95013094D01*
X111977200Y-95013094D02*
X111929580Y-95060713D01*
X101079819Y-96261904D02*
X101889342Y-96261904D01*
X101889342Y-96261904D02*
X101984580Y-96214285D01*
X101984580Y-96214285D02*
X102032200Y-96166666D01*
X102032200Y-96166666D02*
X102079819Y-96071428D01*
X102079819Y-96071428D02*
X102079819Y-95880952D01*
X102079819Y-95880952D02*
X102032200Y-95785714D01*
X102032200Y-95785714D02*
X101984580Y-95738095D01*
X101984580Y-95738095D02*
X101889342Y-95690476D01*
X101889342Y-95690476D02*
X101079819Y-95690476D01*
X101413152Y-94785714D02*
X102079819Y-94785714D01*
X101032200Y-95023809D02*
X101746485Y-95261904D01*
X101746485Y-95261904D02*
X101746485Y-94642857D01*
X138686667Y-124607200D02*
X138829524Y-124654819D01*
X138829524Y-124654819D02*
X139067619Y-124654819D01*
X139067619Y-124654819D02*
X139162857Y-124607200D01*
X139162857Y-124607200D02*
X139210476Y-124559580D01*
X139210476Y-124559580D02*
X139258095Y-124464342D01*
X139258095Y-124464342D02*
X139258095Y-124369104D01*
X139258095Y-124369104D02*
X139210476Y-124273866D01*
X139210476Y-124273866D02*
X139162857Y-124226247D01*
X139162857Y-124226247D02*
X139067619Y-124178628D01*
X139067619Y-124178628D02*
X138877143Y-124131009D01*
X138877143Y-124131009D02*
X138781905Y-124083390D01*
X138781905Y-124083390D02*
X138734286Y-124035771D01*
X138734286Y-124035771D02*
X138686667Y-123940533D01*
X138686667Y-123940533D02*
X138686667Y-123845295D01*
X138686667Y-123845295D02*
X138734286Y-123750057D01*
X138734286Y-123750057D02*
X138781905Y-123702438D01*
X138781905Y-123702438D02*
X138877143Y-123654819D01*
X138877143Y-123654819D02*
X139115238Y-123654819D01*
X139115238Y-123654819D02*
X139258095Y-123702438D01*
X139591429Y-123654819D02*
X139829524Y-124654819D01*
X139829524Y-124654819D02*
X140020000Y-123940533D01*
X140020000Y-123940533D02*
X140210476Y-124654819D01*
X140210476Y-124654819D02*
X140448572Y-123654819D01*
X140781905Y-123750057D02*
X140829524Y-123702438D01*
X140829524Y-123702438D02*
X140924762Y-123654819D01*
X140924762Y-123654819D02*
X141162857Y-123654819D01*
X141162857Y-123654819D02*
X141258095Y-123702438D01*
X141258095Y-123702438D02*
X141305714Y-123750057D01*
X141305714Y-123750057D02*
X141353333Y-123845295D01*
X141353333Y-123845295D02*
X141353333Y-123940533D01*
X141353333Y-123940533D02*
X141305714Y-124083390D01*
X141305714Y-124083390D02*
X140734286Y-124654819D01*
X140734286Y-124654819D02*
X141353333Y-124654819D01*
X118008333Y-114524819D02*
X117675000Y-114048628D01*
X117436905Y-114524819D02*
X117436905Y-113524819D01*
X117436905Y-113524819D02*
X117817857Y-113524819D01*
X117817857Y-113524819D02*
X117913095Y-113572438D01*
X117913095Y-113572438D02*
X117960714Y-113620057D01*
X117960714Y-113620057D02*
X118008333Y-113715295D01*
X118008333Y-113715295D02*
X118008333Y-113858152D01*
X118008333Y-113858152D02*
X117960714Y-113953390D01*
X117960714Y-113953390D02*
X117913095Y-114001009D01*
X117913095Y-114001009D02*
X117817857Y-114048628D01*
X117817857Y-114048628D02*
X117436905Y-114048628D01*
X118960714Y-114524819D02*
X118389286Y-114524819D01*
X118675000Y-114524819D02*
X118675000Y-113524819D01*
X118675000Y-113524819D02*
X118579762Y-113667676D01*
X118579762Y-113667676D02*
X118484524Y-113762914D01*
X118484524Y-113762914D02*
X118389286Y-113810533D01*
X148686667Y-131857200D02*
X148829524Y-131904819D01*
X148829524Y-131904819D02*
X149067619Y-131904819D01*
X149067619Y-131904819D02*
X149162857Y-131857200D01*
X149162857Y-131857200D02*
X149210476Y-131809580D01*
X149210476Y-131809580D02*
X149258095Y-131714342D01*
X149258095Y-131714342D02*
X149258095Y-131619104D01*
X149258095Y-131619104D02*
X149210476Y-131523866D01*
X149210476Y-131523866D02*
X149162857Y-131476247D01*
X149162857Y-131476247D02*
X149067619Y-131428628D01*
X149067619Y-131428628D02*
X148877143Y-131381009D01*
X148877143Y-131381009D02*
X148781905Y-131333390D01*
X148781905Y-131333390D02*
X148734286Y-131285771D01*
X148734286Y-131285771D02*
X148686667Y-131190533D01*
X148686667Y-131190533D02*
X148686667Y-131095295D01*
X148686667Y-131095295D02*
X148734286Y-131000057D01*
X148734286Y-131000057D02*
X148781905Y-130952438D01*
X148781905Y-130952438D02*
X148877143Y-130904819D01*
X148877143Y-130904819D02*
X149115238Y-130904819D01*
X149115238Y-130904819D02*
X149258095Y-130952438D01*
X149591429Y-130904819D02*
X149829524Y-131904819D01*
X149829524Y-131904819D02*
X150020000Y-131190533D01*
X150020000Y-131190533D02*
X150210476Y-131904819D01*
X150210476Y-131904819D02*
X150448572Y-130904819D01*
X151258095Y-131238152D02*
X151258095Y-131904819D01*
X151020000Y-130857200D02*
X150781905Y-131571485D01*
X150781905Y-131571485D02*
X151400952Y-131571485D01*
X158706667Y-124607200D02*
X158849524Y-124654819D01*
X158849524Y-124654819D02*
X159087619Y-124654819D01*
X159087619Y-124654819D02*
X159182857Y-124607200D01*
X159182857Y-124607200D02*
X159230476Y-124559580D01*
X159230476Y-124559580D02*
X159278095Y-124464342D01*
X159278095Y-124464342D02*
X159278095Y-124369104D01*
X159278095Y-124369104D02*
X159230476Y-124273866D01*
X159230476Y-124273866D02*
X159182857Y-124226247D01*
X159182857Y-124226247D02*
X159087619Y-124178628D01*
X159087619Y-124178628D02*
X158897143Y-124131009D01*
X158897143Y-124131009D02*
X158801905Y-124083390D01*
X158801905Y-124083390D02*
X158754286Y-124035771D01*
X158754286Y-124035771D02*
X158706667Y-123940533D01*
X158706667Y-123940533D02*
X158706667Y-123845295D01*
X158706667Y-123845295D02*
X158754286Y-123750057D01*
X158754286Y-123750057D02*
X158801905Y-123702438D01*
X158801905Y-123702438D02*
X158897143Y-123654819D01*
X158897143Y-123654819D02*
X159135238Y-123654819D01*
X159135238Y-123654819D02*
X159278095Y-123702438D01*
X159611429Y-123654819D02*
X159849524Y-124654819D01*
X159849524Y-124654819D02*
X160040000Y-123940533D01*
X160040000Y-123940533D02*
X160230476Y-124654819D01*
X160230476Y-124654819D02*
X160468572Y-123654819D01*
X160754286Y-123654819D02*
X161373333Y-123654819D01*
X161373333Y-123654819D02*
X161040000Y-124035771D01*
X161040000Y-124035771D02*
X161182857Y-124035771D01*
X161182857Y-124035771D02*
X161278095Y-124083390D01*
X161278095Y-124083390D02*
X161325714Y-124131009D01*
X161325714Y-124131009D02*
X161373333Y-124226247D01*
X161373333Y-124226247D02*
X161373333Y-124464342D01*
X161373333Y-124464342D02*
X161325714Y-124559580D01*
X161325714Y-124559580D02*
X161278095Y-124607200D01*
X161278095Y-124607200D02*
X161182857Y-124654819D01*
X161182857Y-124654819D02*
X160897143Y-124654819D01*
X160897143Y-124654819D02*
X160801905Y-124607200D01*
X160801905Y-124607200D02*
X160754286Y-124559580D01*
X112666666Y-121954819D02*
X112666666Y-122669104D01*
X112666666Y-122669104D02*
X112619047Y-122811961D01*
X112619047Y-122811961D02*
X112523809Y-122907200D01*
X112523809Y-122907200D02*
X112380952Y-122954819D01*
X112380952Y-122954819D02*
X112285714Y-122954819D01*
X113047619Y-121954819D02*
X113666666Y-121954819D01*
X113666666Y-121954819D02*
X113333333Y-122335771D01*
X113333333Y-122335771D02*
X113476190Y-122335771D01*
X113476190Y-122335771D02*
X113571428Y-122383390D01*
X113571428Y-122383390D02*
X113619047Y-122431009D01*
X113619047Y-122431009D02*
X113666666Y-122526247D01*
X113666666Y-122526247D02*
X113666666Y-122764342D01*
X113666666Y-122764342D02*
X113619047Y-122859580D01*
X113619047Y-122859580D02*
X113571428Y-122907200D01*
X113571428Y-122907200D02*
X113476190Y-122954819D01*
X113476190Y-122954819D02*
X113190476Y-122954819D01*
X113190476Y-122954819D02*
X113095238Y-122907200D01*
X113095238Y-122907200D02*
X113047619Y-122859580D01*
X128608333Y-118749580D02*
X128560714Y-118797200D01*
X128560714Y-118797200D02*
X128417857Y-118844819D01*
X128417857Y-118844819D02*
X128322619Y-118844819D01*
X128322619Y-118844819D02*
X128179762Y-118797200D01*
X128179762Y-118797200D02*
X128084524Y-118701961D01*
X128084524Y-118701961D02*
X128036905Y-118606723D01*
X128036905Y-118606723D02*
X127989286Y-118416247D01*
X127989286Y-118416247D02*
X127989286Y-118273390D01*
X127989286Y-118273390D02*
X128036905Y-118082914D01*
X128036905Y-118082914D02*
X128084524Y-117987676D01*
X128084524Y-117987676D02*
X128179762Y-117892438D01*
X128179762Y-117892438D02*
X128322619Y-117844819D01*
X128322619Y-117844819D02*
X128417857Y-117844819D01*
X128417857Y-117844819D02*
X128560714Y-117892438D01*
X128560714Y-117892438D02*
X128608333Y-117940057D01*
X128941667Y-117844819D02*
X129560714Y-117844819D01*
X129560714Y-117844819D02*
X129227381Y-118225771D01*
X129227381Y-118225771D02*
X129370238Y-118225771D01*
X129370238Y-118225771D02*
X129465476Y-118273390D01*
X129465476Y-118273390D02*
X129513095Y-118321009D01*
X129513095Y-118321009D02*
X129560714Y-118416247D01*
X129560714Y-118416247D02*
X129560714Y-118654342D01*
X129560714Y-118654342D02*
X129513095Y-118749580D01*
X129513095Y-118749580D02*
X129465476Y-118797200D01*
X129465476Y-118797200D02*
X129370238Y-118844819D01*
X129370238Y-118844819D02*
X129084524Y-118844819D01*
X129084524Y-118844819D02*
X128989286Y-118797200D01*
X128989286Y-118797200D02*
X128941667Y-118749580D01*
X123611905Y-121954819D02*
X123611905Y-120954819D01*
X123611905Y-120954819D02*
X123850000Y-120954819D01*
X123850000Y-120954819D02*
X123992857Y-121002438D01*
X123992857Y-121002438D02*
X124088095Y-121097676D01*
X124088095Y-121097676D02*
X124135714Y-121192914D01*
X124135714Y-121192914D02*
X124183333Y-121383390D01*
X124183333Y-121383390D02*
X124183333Y-121526247D01*
X124183333Y-121526247D02*
X124135714Y-121716723D01*
X124135714Y-121716723D02*
X124088095Y-121811961D01*
X124088095Y-121811961D02*
X123992857Y-121907200D01*
X123992857Y-121907200D02*
X123850000Y-121954819D01*
X123850000Y-121954819D02*
X123611905Y-121954819D01*
X125135714Y-121954819D02*
X124564286Y-121954819D01*
X124850000Y-121954819D02*
X124850000Y-120954819D01*
X124850000Y-120954819D02*
X124754762Y-121097676D01*
X124754762Y-121097676D02*
X124659524Y-121192914D01*
X124659524Y-121192914D02*
X124564286Y-121240533D01*
X126608333Y-130429580D02*
X126560714Y-130477200D01*
X126560714Y-130477200D02*
X126417857Y-130524819D01*
X126417857Y-130524819D02*
X126322619Y-130524819D01*
X126322619Y-130524819D02*
X126179762Y-130477200D01*
X126179762Y-130477200D02*
X126084524Y-130381961D01*
X126084524Y-130381961D02*
X126036905Y-130286723D01*
X126036905Y-130286723D02*
X125989286Y-130096247D01*
X125989286Y-130096247D02*
X125989286Y-129953390D01*
X125989286Y-129953390D02*
X126036905Y-129762914D01*
X126036905Y-129762914D02*
X126084524Y-129667676D01*
X126084524Y-129667676D02*
X126179762Y-129572438D01*
X126179762Y-129572438D02*
X126322619Y-129524819D01*
X126322619Y-129524819D02*
X126417857Y-129524819D01*
X126417857Y-129524819D02*
X126560714Y-129572438D01*
X126560714Y-129572438D02*
X126608333Y-129620057D01*
X126941667Y-129524819D02*
X127608333Y-129524819D01*
X127608333Y-129524819D02*
X127179762Y-130524819D01*
X148706667Y-117607200D02*
X148849524Y-117654819D01*
X148849524Y-117654819D02*
X149087619Y-117654819D01*
X149087619Y-117654819D02*
X149182857Y-117607200D01*
X149182857Y-117607200D02*
X149230476Y-117559580D01*
X149230476Y-117559580D02*
X149278095Y-117464342D01*
X149278095Y-117464342D02*
X149278095Y-117369104D01*
X149278095Y-117369104D02*
X149230476Y-117273866D01*
X149230476Y-117273866D02*
X149182857Y-117226247D01*
X149182857Y-117226247D02*
X149087619Y-117178628D01*
X149087619Y-117178628D02*
X148897143Y-117131009D01*
X148897143Y-117131009D02*
X148801905Y-117083390D01*
X148801905Y-117083390D02*
X148754286Y-117035771D01*
X148754286Y-117035771D02*
X148706667Y-116940533D01*
X148706667Y-116940533D02*
X148706667Y-116845295D01*
X148706667Y-116845295D02*
X148754286Y-116750057D01*
X148754286Y-116750057D02*
X148801905Y-116702438D01*
X148801905Y-116702438D02*
X148897143Y-116654819D01*
X148897143Y-116654819D02*
X149135238Y-116654819D01*
X149135238Y-116654819D02*
X149278095Y-116702438D01*
X149611429Y-116654819D02*
X149849524Y-117654819D01*
X149849524Y-117654819D02*
X150040000Y-116940533D01*
X150040000Y-116940533D02*
X150230476Y-117654819D01*
X150230476Y-117654819D02*
X150468572Y-116654819D01*
X151373333Y-117654819D02*
X150801905Y-117654819D01*
X151087619Y-117654819D02*
X151087619Y-116654819D01*
X151087619Y-116654819D02*
X150992381Y-116797676D01*
X150992381Y-116797676D02*
X150897143Y-116892914D01*
X150897143Y-116892914D02*
X150801905Y-116940533D01*
X149238095Y-71894819D02*
X149238095Y-72704342D01*
X149238095Y-72704342D02*
X149285714Y-72799580D01*
X149285714Y-72799580D02*
X149333333Y-72847200D01*
X149333333Y-72847200D02*
X149428571Y-72894819D01*
X149428571Y-72894819D02*
X149619047Y-72894819D01*
X149619047Y-72894819D02*
X149714285Y-72847200D01*
X149714285Y-72847200D02*
X149761904Y-72799580D01*
X149761904Y-72799580D02*
X149809523Y-72704342D01*
X149809523Y-72704342D02*
X149809523Y-71894819D01*
X150238095Y-71990057D02*
X150285714Y-71942438D01*
X150285714Y-71942438D02*
X150380952Y-71894819D01*
X150380952Y-71894819D02*
X150619047Y-71894819D01*
X150619047Y-71894819D02*
X150714285Y-71942438D01*
X150714285Y-71942438D02*
X150761904Y-71990057D01*
X150761904Y-71990057D02*
X150809523Y-72085295D01*
X150809523Y-72085295D02*
X150809523Y-72180533D01*
X150809523Y-72180533D02*
X150761904Y-72323390D01*
X150761904Y-72323390D02*
X150190476Y-72894819D01*
X150190476Y-72894819D02*
X150809523Y-72894819D01*
X128608333Y-113379580D02*
X128560714Y-113427200D01*
X128560714Y-113427200D02*
X128417857Y-113474819D01*
X128417857Y-113474819D02*
X128322619Y-113474819D01*
X128322619Y-113474819D02*
X128179762Y-113427200D01*
X128179762Y-113427200D02*
X128084524Y-113331961D01*
X128084524Y-113331961D02*
X128036905Y-113236723D01*
X128036905Y-113236723D02*
X127989286Y-113046247D01*
X127989286Y-113046247D02*
X127989286Y-112903390D01*
X127989286Y-112903390D02*
X128036905Y-112712914D01*
X128036905Y-112712914D02*
X128084524Y-112617676D01*
X128084524Y-112617676D02*
X128179762Y-112522438D01*
X128179762Y-112522438D02*
X128322619Y-112474819D01*
X128322619Y-112474819D02*
X128417857Y-112474819D01*
X128417857Y-112474819D02*
X128560714Y-112522438D01*
X128560714Y-112522438D02*
X128608333Y-112570057D01*
X129465476Y-112808152D02*
X129465476Y-113474819D01*
X129227381Y-112427200D02*
X128989286Y-113141485D01*
X128989286Y-113141485D02*
X129608333Y-113141485D01*
X119454819Y-67071904D02*
X120264342Y-67071904D01*
X120264342Y-67071904D02*
X120359580Y-67024285D01*
X120359580Y-67024285D02*
X120407200Y-66976666D01*
X120407200Y-66976666D02*
X120454819Y-66881428D01*
X120454819Y-66881428D02*
X120454819Y-66690952D01*
X120454819Y-66690952D02*
X120407200Y-66595714D01*
X120407200Y-66595714D02*
X120359580Y-66548095D01*
X120359580Y-66548095D02*
X120264342Y-66500476D01*
X120264342Y-66500476D02*
X119454819Y-66500476D01*
X119454819Y-66119523D02*
X119454819Y-65500476D01*
X119454819Y-65500476D02*
X119835771Y-65833809D01*
X119835771Y-65833809D02*
X119835771Y-65690952D01*
X119835771Y-65690952D02*
X119883390Y-65595714D01*
X119883390Y-65595714D02*
X119931009Y-65548095D01*
X119931009Y-65548095D02*
X120026247Y-65500476D01*
X120026247Y-65500476D02*
X120264342Y-65500476D01*
X120264342Y-65500476D02*
X120359580Y-65548095D01*
X120359580Y-65548095D02*
X120407200Y-65595714D01*
X120407200Y-65595714D02*
X120454819Y-65690952D01*
X120454819Y-65690952D02*
X120454819Y-65976666D01*
X120454819Y-65976666D02*
X120407200Y-66071904D01*
X120407200Y-66071904D02*
X120359580Y-66119523D01*
X133608333Y-115429580D02*
X133560714Y-115477200D01*
X133560714Y-115477200D02*
X133417857Y-115524819D01*
X133417857Y-115524819D02*
X133322619Y-115524819D01*
X133322619Y-115524819D02*
X133179762Y-115477200D01*
X133179762Y-115477200D02*
X133084524Y-115381961D01*
X133084524Y-115381961D02*
X133036905Y-115286723D01*
X133036905Y-115286723D02*
X132989286Y-115096247D01*
X132989286Y-115096247D02*
X132989286Y-114953390D01*
X132989286Y-114953390D02*
X133036905Y-114762914D01*
X133036905Y-114762914D02*
X133084524Y-114667676D01*
X133084524Y-114667676D02*
X133179762Y-114572438D01*
X133179762Y-114572438D02*
X133322619Y-114524819D01*
X133322619Y-114524819D02*
X133417857Y-114524819D01*
X133417857Y-114524819D02*
X133560714Y-114572438D01*
X133560714Y-114572438D02*
X133608333Y-114620057D01*
X134560714Y-115524819D02*
X133989286Y-115524819D01*
X134275000Y-115524819D02*
X134275000Y-114524819D01*
X134275000Y-114524819D02*
X134179762Y-114667676D01*
X134179762Y-114667676D02*
X134084524Y-114762914D01*
X134084524Y-114762914D02*
X133989286Y-114810533D01*
%TO.C,U1*%
D11*
X111460000Y-88230000D02*
X111460000Y-105170000D01*
X117660000Y-88230000D02*
X111460000Y-88230000D01*
X117660000Y-88250000D02*
X139220000Y-88250000D01*
X117660000Y-105150000D02*
X139230000Y-105150000D01*
X117660000Y-105170000D02*
X111460000Y-105170000D01*
X117660000Y-110670000D02*
X117660000Y-82730000D01*
X139230000Y-105150000D02*
X139230000Y-88250000D01*
X160760000Y-92700000D02*
X160760000Y-100700000D01*
X160760000Y-92700000D02*
X165860000Y-92700000D01*
X160760000Y-100700000D02*
X165860000Y-100700000D01*
X165860000Y-82730000D02*
X117660000Y-82730000D01*
X165860000Y-82730000D02*
X165860000Y-110670000D01*
X165860000Y-110670000D02*
X117660000Y-110670000D01*
D12*
X117690000Y-110670000D02*
G75*
G02*
X117630000Y-110670000I-30000J0D01*
G01*
X117630000Y-110670000D02*
G75*
G02*
X117690000Y-110670000I30000J0D01*
G01*
%TO.C,C6*%
D13*
X103859420Y-112990000D02*
X104140580Y-112990000D01*
X103859420Y-114010000D02*
X104140580Y-114010000D01*
%TO.C,BZ1*%
X117600000Y-68000000D02*
G75*
G02*
X105400000Y-68000000I-6100000J0D01*
G01*
X105400000Y-68000000D02*
G75*
G02*
X117600000Y-68000000I6100000J0D01*
G01*
%TO.C,R2*%
X121262742Y-130977500D02*
X121737258Y-130977500D01*
X121262742Y-132022500D02*
X121737258Y-132022500D01*
%TO.C,J2*%
X100650000Y-100250000D02*
X100650000Y-101500000D01*
X100950000Y-102800000D02*
X101700000Y-102800000D01*
X101700000Y-102800000D02*
X101700000Y-105750000D01*
X101700000Y-105750000D02*
X104750000Y-105750000D01*
X101900000Y-100250000D02*
X100650000Y-100250000D01*
X107800000Y-102800000D02*
X107800000Y-105750000D01*
X107800000Y-105750000D02*
X104750000Y-105750000D01*
X108550000Y-102800000D02*
X107800000Y-102800000D01*
X100940000Y-100540000D02*
X108560000Y-100540000D01*
X108560000Y-106510000D01*
X100940000Y-106510000D01*
X100940000Y-100540000D01*
X100950000Y-100550000D02*
X102750000Y-100550000D01*
X102750000Y-101300000D01*
X100950000Y-101300000D01*
X100950000Y-100550000D01*
X104250000Y-100550000D02*
X105250000Y-100550000D01*
X105250000Y-101300000D01*
X104250000Y-101300000D01*
X104250000Y-100550000D01*
X106750000Y-100550000D02*
X108550000Y-100550000D01*
X108550000Y-101300000D01*
X106750000Y-101300000D01*
X106750000Y-100550000D01*
%TO.C,R3*%
X151562258Y-79477500D02*
X151087742Y-79477500D01*
X151562258Y-80522500D02*
X151087742Y-80522500D01*
%TO.C,J1*%
X101055000Y-76700000D02*
X101055000Y-79380000D01*
X101055000Y-81680000D02*
X101055000Y-85350000D01*
X101055000Y-87650000D02*
X101055000Y-88880000D01*
X101055000Y-88880000D02*
X110875000Y-88880000D01*
X101775000Y-76700000D02*
X101055000Y-76700000D01*
X105475000Y-76700000D02*
X103175000Y-76700000D01*
X111325000Y-76700000D02*
X106875000Y-76700000D01*
X112695000Y-78180000D02*
X112695000Y-79040000D01*
%TO.C,C2*%
X132134420Y-133990000D02*
X132415580Y-133990000D01*
X132134420Y-135010000D02*
X132415580Y-135010000D01*
%TO.C,D2*%
X159400000Y-73950000D02*
X159400000Y-80500000D01*
X159400000Y-80500000D02*
X159850000Y-80950000D01*
X159850000Y-80950000D02*
X164900000Y-80950000D01*
X161250000Y-74750000D02*
X163050000Y-74750000D01*
X161250000Y-80150000D02*
X163050000Y-80150000D01*
X164900000Y-73950000D02*
X159400000Y-73950000D01*
X164900000Y-73950000D02*
X164900000Y-80950000D01*
%TO.C,C5*%
X112490000Y-95415580D02*
X112490000Y-95134420D01*
X113510000Y-95415580D02*
X113510000Y-95134420D01*
%TO.C,U4*%
X102850000Y-93350000D02*
X102850000Y-93875000D01*
X102850000Y-93350000D02*
X103375000Y-93350000D01*
X102850000Y-97125000D02*
X102850000Y-97350000D01*
X103315000Y-97650000D02*
X103090000Y-97650000D01*
X107150000Y-93350000D02*
X106625000Y-93350000D01*
X107150000Y-93350000D02*
X107150000Y-93875000D01*
X107150000Y-97650000D02*
X106625000Y-97650000D01*
X107150000Y-97650000D02*
X107150000Y-97125000D01*
X102850000Y-97650000D02*
X102520000Y-97890000D01*
X102520000Y-97410000D01*
X102850000Y-97650000D01*
G36*
X102850000Y-97650000D02*
G01*
X102520000Y-97890000D01*
X102520000Y-97410000D01*
X102850000Y-97650000D01*
G37*
%TO.C,SW2*%
X136790000Y-125020000D02*
X143250000Y-125020000D01*
X136790000Y-125050000D02*
X136790000Y-125020000D01*
X136790000Y-126950000D02*
X136790000Y-129550000D01*
X136790000Y-131480000D02*
X136790000Y-131450000D01*
X136790000Y-131480000D02*
X143250000Y-131480000D01*
X143250000Y-125020000D02*
X143250000Y-125050000D01*
X143250000Y-126950000D02*
X143250000Y-129550000D01*
X143250000Y-131480000D02*
X143250000Y-131450000D01*
%TO.C,R1*%
X117937742Y-114977500D02*
X118412258Y-114977500D01*
X117937742Y-116022500D02*
X118412258Y-116022500D01*
%TO.C,SW4*%
X146790000Y-132270000D02*
X153250000Y-132270000D01*
X146790000Y-132300000D02*
X146790000Y-132270000D01*
X146790000Y-134200000D02*
X146790000Y-136800000D01*
X146790000Y-138730000D02*
X146790000Y-138700000D01*
X146790000Y-138730000D02*
X153250000Y-138730000D01*
X153250000Y-132270000D02*
X153250000Y-132300000D01*
X153250000Y-134200000D02*
X153250000Y-136800000D01*
X153250000Y-138730000D02*
X153250000Y-138700000D01*
%TO.C,SW3*%
X156810000Y-125020000D02*
X163270000Y-125020000D01*
X156810000Y-125050000D02*
X156810000Y-125020000D01*
X156810000Y-126950000D02*
X156810000Y-129550000D01*
X156810000Y-131480000D02*
X156810000Y-131450000D01*
X156810000Y-131480000D02*
X163270000Y-131480000D01*
X163270000Y-125020000D02*
X163270000Y-125050000D01*
X163270000Y-126950000D02*
X163270000Y-129550000D01*
X163270000Y-131480000D02*
X163270000Y-131450000D01*
%TO.C,J3*%
X109940000Y-123590000D02*
X109940000Y-131410000D01*
X109940000Y-125190000D02*
X110860000Y-125190000D01*
X109940000Y-131410000D02*
X116060000Y-131410000D01*
X110860000Y-123590000D02*
X109940000Y-123590000D01*
X110860000Y-125190000D02*
X110860000Y-123590000D01*
X111140000Y-125190000D02*
X110860000Y-125190000D01*
X111140000Y-125190000D02*
X111140000Y-123975000D01*
X111200000Y-129150000D02*
X111200000Y-131410000D01*
X111700000Y-129150000D02*
X111700000Y-131410000D01*
X112500000Y-127050000D02*
X113500000Y-127050000D01*
X112500000Y-131410000D02*
X112500000Y-127050000D01*
X113500000Y-127050000D02*
X113500000Y-131410000D01*
X115140000Y-123590000D02*
X115140000Y-125190000D01*
X115140000Y-125190000D02*
X114860000Y-125190000D01*
X116060000Y-123590000D02*
X115140000Y-123590000D01*
X116060000Y-125190000D02*
X115140000Y-125190000D01*
X116060000Y-131410000D02*
X116060000Y-123590000D01*
X110700000Y-127550000D02*
X111700000Y-127550000D01*
X111700000Y-129150000D01*
X110700000Y-129150000D01*
X110700000Y-127550000D01*
X114300000Y-127550000D02*
X115300000Y-127550000D01*
X115300000Y-129150000D01*
X114300000Y-129150000D01*
X114300000Y-127550000D01*
%TO.C,C3*%
X128915580Y-116450000D02*
X128634420Y-116450000D01*
X128915580Y-117470000D02*
X128634420Y-117470000D01*
%TO.C,D1*%
X121990000Y-122500000D02*
X121990000Y-124500000D01*
X121990000Y-122500000D02*
X126000000Y-122500000D01*
X121990000Y-124500000D02*
X126000000Y-124500000D01*
%TO.C,C7*%
X126634420Y-130990000D02*
X126915580Y-130990000D01*
X126634420Y-132010000D02*
X126915580Y-132010000D01*
%TO.C,SW1*%
X146810000Y-118020000D02*
X153270000Y-118020000D01*
X146810000Y-118050000D02*
X146810000Y-118020000D01*
X146810000Y-119950000D02*
X146810000Y-122550000D01*
X146810000Y-124480000D02*
X146810000Y-124450000D01*
X146810000Y-124480000D02*
X153270000Y-124480000D01*
X153270000Y-118020000D02*
X153270000Y-118050000D01*
X153270000Y-119950000D02*
X153270000Y-122550000D01*
X153270000Y-124480000D02*
X153270000Y-124450000D01*
%TO.C,U2*%
X148200000Y-77850000D02*
X151800000Y-77850000D01*
X148161522Y-77838478D02*
G75*
G02*
X150000000Y-73399999I1838478J1838478D01*
G01*
X150000000Y-73400000D02*
G75*
G02*
X151838478Y-77838478I0J-2600000D01*
G01*
%TO.C,C4*%
X128634420Y-113940000D02*
X128915580Y-113940000D01*
X128634420Y-114960000D02*
X128915580Y-114960000D01*
%TO.C,U3*%
X122500000Y-71690000D02*
X123880000Y-71690000D01*
X123880000Y-70310000D02*
X123880000Y-71690000D01*
X121000000Y-60500000D02*
X159000000Y-60500000D01*
X159000000Y-72500000D01*
X121000000Y-72500000D01*
X121000000Y-60500000D01*
%TO.C,C1*%
X133634420Y-115990000D02*
X133915580Y-115990000D01*
X133634420Y-117010000D02*
X133915580Y-117010000D01*
%TD*%
M02*
