%TF.GenerationSoftware,KiCad,Pcbnew,10.0.3*%
%TF.CreationDate,2026-09-18T19:19:04+05:30*%
%TF.ProjectId,satelite,73617465-6c69-4746-952e-6b696361645f,rev?*%
%TF.SameCoordinates,Original*%
%TF.FileFunction,Soldermask,Bot*%
%TF.FilePolarity,Negative*%
%FSLAX46Y46*%
G04 Gerber Fmt 4.6, Leading zero omitted, Abs format (unit mm)*
G04 Created by KiCad (PCBNEW 10.0.3) date 2026-09-18 19:19:04*
%MOMM*%
%LPD*%
G01*
G04 APERTURE LIST*
G04 Aperture macros list*
%AMRoundRect*
0 Rectangle with rounded corners*
0 $1 Rounding radius*
0 $2 $3 $4 $5 $6 $7 $8 $9 X,Y pos of 4 corners*
0 Add a 4 corners polygon primitive as box body*
4,1,4,$2,$3,$4,$5,$6,$7,$8,$9,$2,$3,0*
0 Add four circle primitives for the rounded corners*
1,1,$1+$1,$2,$3*
1,1,$1+$1,$4,$5*
1,1,$1+$1,$6,$7*
1,1,$1+$1,$8,$9*
0 Add four rect primitives between the rounded corners*
20,1,$1+$1,$2,$3,$4,$5,0*
20,1,$1+$1,$4,$5,$6,$7,0*
20,1,$1+$1,$6,$7,$8,$9,0*
20,1,$1+$1,$8,$9,$2,$3,0*%
G04 Aperture macros list end*
%ADD10C,1.500000*%
%ADD11R,2.000000X2.000000*%
%ADD12C,2.000000*%
%ADD13RoundRect,0.250000X-0.600000X-0.750000X0.600000X-0.750000X0.600000X0.750000X-0.600000X0.750000X0*%
%ADD14O,1.700000X2.000000*%
%ADD15RoundRect,0.250000X-0.350000X-0.625000X0.350000X-0.625000X0.350000X0.625000X-0.350000X0.625000X0*%
%ADD16O,1.200000X1.750000*%
%ADD17R,1.050000X1.500000*%
%ADD18O,1.050000X1.500000*%
%ADD19RoundRect,0.170000X0.680000X-0.680000X0.680000X0.680000X-0.680000X0.680000X-0.680000X-0.680000X0*%
%ADD20C,1.700000*%
G04 APERTURE END LIST*
D10*
%TO.C,U1*%
X118900000Y-109400000D03*
X121440000Y-109400000D03*
X123980000Y-109400000D03*
X126520000Y-109400000D03*
X129060000Y-109400000D03*
X131600000Y-109400000D03*
X134140000Y-109400000D03*
X136680000Y-109400000D03*
X139220000Y-109400000D03*
X141760000Y-109400000D03*
X144300000Y-109400000D03*
X146840000Y-109400000D03*
X149380000Y-109400000D03*
X151920000Y-109400000D03*
X154460000Y-109400000D03*
X157000000Y-109400000D03*
X159540000Y-109400000D03*
X162080000Y-109400000D03*
X164620000Y-109400000D03*
X118900000Y-84000000D03*
X121440000Y-84000000D03*
X123980000Y-84000000D03*
X126520000Y-84000000D03*
X129060000Y-84000000D03*
X131600000Y-84000000D03*
X134140000Y-84000000D03*
X136680000Y-84000000D03*
X139220000Y-84000000D03*
X141760000Y-84000000D03*
X144300000Y-84000000D03*
X146840000Y-84000000D03*
X149380000Y-84000000D03*
X151920000Y-84000000D03*
X154460000Y-84000000D03*
X157000000Y-84000000D03*
X159540000Y-84000000D03*
X162080000Y-84000000D03*
X164620000Y-84000000D03*
%TD*%
D11*
%TO.C,BZ1*%
X111500000Y-71800000D03*
D12*
X111500000Y-64200000D03*
%TD*%
D13*
%TO.C,J2*%
X103500000Y-103000000D03*
D14*
X106000000Y-103000000D03*
%TD*%
D15*
%TO.C,J3*%
X112000000Y-125050000D03*
D16*
X114000000Y-125050000D03*
%TD*%
D17*
%TO.C,U2*%
X148730000Y-76000000D03*
D18*
X150000000Y-76000000D03*
X151270000Y-76000000D03*
%TD*%
D19*
%TO.C,U3*%
X122500000Y-70310000D03*
D20*
X122500000Y-67770000D03*
X122500000Y-65230000D03*
X122500000Y-62690000D03*
%TD*%
M02*
