%TF.GenerationSoftware,KiCad,Pcbnew,10.0.3*%
%TF.CreationDate,2026-09-18T19:19:04+05:30*%
%TF.ProjectId,satelite,73617465-6c69-4746-952e-6b696361645f,rev?*%
%TF.SameCoordinates,Original*%
%TF.FileFunction,Soldermask,Top*%
%TF.FilePolarity,Negative*%
%FSLAX46Y46*%
G04 Gerber Fmt 4.6, Leading zero omitted, Abs format (unit mm)*
G04 Created by KiCad (PCBNEW 10.0.3) date 2026-09-18 19:19:04*
%MOMM*%
%LPD*%
G01*
G04 APERTURE LIST*
G04 Aperture macros list*
%AMRoundRect*
0 Rectangle with rounded corners*
0 $1 Rounding radius*
0 $2 $3 $4 $5 $6 $7 $8 $9 X,Y pos of 4 corners*
0 Add a 4 corners polygon primitive as box body*
4,1,4,$2,$3,$4,$5,$6,$7,$8,$9,$2,$3,0*
0 Add four circle primitives for the rounded corners*
1,1,$1+$1,$2,$3*
1,1,$1+$1,$4,$5*
1,1,$1+$1,$6,$7*
1,1,$1+$1,$8,$9*
0 Add four rect primitives between the rounded corners*
20,1,$1+$1,$2,$3,$4,$5,0*
20,1,$1+$1,$4,$5,$6,$7,0*
20,1,$1+$1,$6,$7,$8,$9,0*
20,1,$1+$1,$8,$9,$2,$3,0*%
G04 Aperture macros list end*
%ADD10C,1.500000*%
%ADD11RoundRect,0.225000X-0.225000X-0.250000X0.225000X-0.250000X0.225000X0.250000X-0.225000X0.250000X0*%
%ADD12R,2.000000X2.000000*%
%ADD13C,2.000000*%
%ADD14RoundRect,0.200000X-0.200000X-0.275000X0.200000X-0.275000X0.200000X0.275000X-0.200000X0.275000X0*%
%ADD15RoundRect,0.250000X-0.600000X-0.750000X0.600000X-0.750000X0.600000X0.750000X-0.600000X0.750000X0*%
%ADD16O,1.700000X2.000000*%
%ADD17RoundRect,0.200000X0.200000X0.275000X-0.200000X0.275000X-0.200000X-0.275000X0.200000X-0.275000X0*%
%ADD18R,1.100000X0.850000*%
%ADD19R,1.100000X0.750000*%
%ADD20R,1.000000X1.200000*%
%ADD21R,1.350000X1.550000*%
%ADD22R,1.350000X1.900000*%
%ADD23R,1.800000X1.170000*%
%ADD24RoundRect,0.090000X-0.360000X0.660000X-0.360000X-0.660000X0.360000X-0.660000X0.360000X0.660000X0*%
%ADD25RoundRect,0.225000X0.250000X-0.225000X0.250000X0.225000X-0.250000X0.225000X-0.250000X-0.225000X0*%
%ADD26RoundRect,0.075000X0.075000X-0.350000X0.075000X0.350000X-0.075000X0.350000X-0.075000X-0.350000X0*%
%ADD27RoundRect,0.075000X0.350000X0.075000X-0.350000X0.075000X-0.350000X-0.075000X0.350000X-0.075000X0*%
%ADD28RoundRect,0.250000X-0.525000X-0.400000X0.525000X-0.400000X0.525000X0.400000X-0.525000X0.400000X0*%
%ADD29RoundRect,0.250000X-0.350000X-0.625000X0.350000X-0.625000X0.350000X0.625000X-0.350000X0.625000X0*%
%ADD30O,1.200000X1.750000*%
%ADD31RoundRect,0.225000X0.225000X0.250000X-0.225000X0.250000X-0.225000X-0.250000X0.225000X-0.250000X0*%
%ADD32RoundRect,0.225000X-0.225000X-0.375000X0.225000X-0.375000X0.225000X0.375000X-0.225000X0.375000X0*%
%ADD33R,1.050000X1.500000*%
%ADD34O,1.050000X1.500000*%
%ADD35RoundRect,0.170000X0.680000X-0.680000X0.680000X0.680000X-0.680000X0.680000X-0.680000X-0.680000X0*%
%ADD36C,1.700000*%
G04 APERTURE END LIST*
D10*
%TO.C,U1*%
X118900000Y-109400000D03*
X121440000Y-109400000D03*
X123980000Y-109400000D03*
X126520000Y-109400000D03*
X129060000Y-109400000D03*
X131600000Y-109400000D03*
X134140000Y-109400000D03*
X136680000Y-109400000D03*
X139220000Y-109400000D03*
X141760000Y-109400000D03*
X144300000Y-109400000D03*
X146840000Y-109400000D03*
X149380000Y-109400000D03*
X151920000Y-109400000D03*
X154460000Y-109400000D03*
X157000000Y-109400000D03*
X159540000Y-109400000D03*
X162080000Y-109400000D03*
X164620000Y-109400000D03*
X118900000Y-84000000D03*
X121440000Y-84000000D03*
X123980000Y-84000000D03*
X126520000Y-84000000D03*
X129060000Y-84000000D03*
X131600000Y-84000000D03*
X134140000Y-84000000D03*
X136680000Y-84000000D03*
X139220000Y-84000000D03*
X141760000Y-84000000D03*
X144300000Y-84000000D03*
X146840000Y-84000000D03*
X149380000Y-84000000D03*
X151920000Y-84000000D03*
X154460000Y-84000000D03*
X157000000Y-84000000D03*
X159540000Y-84000000D03*
X162080000Y-84000000D03*
X164620000Y-84000000D03*
%TD*%
D11*
%TO.C,C6*%
X103225000Y-113500000D03*
X104775000Y-113500000D03*
%TD*%
D12*
%TO.C,BZ1*%
X111500000Y-71800000D03*
D13*
X111500000Y-64200000D03*
%TD*%
D14*
%TO.C,R2*%
X120675000Y-131500000D03*
X122325000Y-131500000D03*
%TD*%
D15*
%TO.C,J2*%
X103500000Y-103000000D03*
D16*
X106000000Y-103000000D03*
%TD*%
D17*
%TO.C,R3*%
X152150000Y-80000000D03*
X150500000Y-80000000D03*
%TD*%
D18*
%TO.C,J1*%
X112325000Y-79665000D03*
X112325000Y-80765000D03*
X112325000Y-81865000D03*
X112325000Y-82965000D03*
X112325000Y-84065000D03*
X112325000Y-85165000D03*
X112325000Y-86265000D03*
D19*
X112325000Y-87315000D03*
D20*
X106175000Y-77030000D03*
X102475000Y-77030000D03*
D21*
X112200000Y-77205000D03*
D22*
X101500000Y-80530000D03*
X101500000Y-86500000D03*
D23*
X111975000Y-88525000D03*
%TD*%
D11*
%TO.C,C2*%
X131500000Y-134500000D03*
X133050000Y-134500000D03*
%TD*%
D24*
%TO.C,D2*%
X163800000Y-75000000D03*
X160500000Y-75000000D03*
X160500000Y-79900000D03*
X163800000Y-79900000D03*
%TD*%
D25*
%TO.C,C5*%
X113000000Y-96050000D03*
X113000000Y-94500000D03*
%TD*%
D26*
%TO.C,U4*%
X103750000Y-97450000D03*
X104250000Y-97450000D03*
X104750000Y-97450000D03*
X105250000Y-97450000D03*
X105750000Y-97450000D03*
X106250000Y-97450000D03*
D27*
X106950000Y-96750000D03*
X106950000Y-96250000D03*
X106950000Y-95750000D03*
X106950000Y-95250000D03*
X106950000Y-94750000D03*
X106950000Y-94250000D03*
D26*
X106250000Y-93550000D03*
X105750000Y-93550000D03*
X105250000Y-93550000D03*
X104750000Y-93550000D03*
X104250000Y-93550000D03*
X103750000Y-93550000D03*
D27*
X103050000Y-94250000D03*
X103050000Y-94750000D03*
X103050000Y-95250000D03*
X103050000Y-95750000D03*
X103050000Y-96250000D03*
X103050000Y-96750000D03*
%TD*%
D28*
%TO.C,SW2*%
X136040000Y-126000000D03*
X144000000Y-126000000D03*
X136040000Y-130500000D03*
X144000000Y-130500000D03*
%TD*%
D14*
%TO.C,R1*%
X117350000Y-115500000D03*
X119000000Y-115500000D03*
%TD*%
D28*
%TO.C,SW4*%
X146040000Y-133250000D03*
X154000000Y-133250000D03*
X146040000Y-137750000D03*
X154000000Y-137750000D03*
%TD*%
%TO.C,SW3*%
X156060000Y-126000000D03*
X164020000Y-126000000D03*
X156060000Y-130500000D03*
X164020000Y-130500000D03*
%TD*%
D29*
%TO.C,J3*%
X112000000Y-125050000D03*
D30*
X114000000Y-125050000D03*
%TD*%
D31*
%TO.C,C3*%
X129550000Y-116960000D03*
X128000000Y-116960000D03*
%TD*%
D32*
%TO.C,D1*%
X122700000Y-123500000D03*
X126000000Y-123500000D03*
%TD*%
D11*
%TO.C,C7*%
X126000000Y-131500000D03*
X127550000Y-131500000D03*
%TD*%
D28*
%TO.C,SW1*%
X146060000Y-119000000D03*
X154020000Y-119000000D03*
X146060000Y-123500000D03*
X154020000Y-123500000D03*
%TD*%
D33*
%TO.C,U2*%
X148730000Y-76000000D03*
D34*
X150000000Y-76000000D03*
X151270000Y-76000000D03*
%TD*%
D11*
%TO.C,C4*%
X128000000Y-114450000D03*
X129550000Y-114450000D03*
%TD*%
D35*
%TO.C,U3*%
X122500000Y-70310000D03*
D36*
X122500000Y-67770000D03*
X122500000Y-65230000D03*
X122500000Y-62690000D03*
%TD*%
D11*
%TO.C,C1*%
X133000000Y-116500000D03*
X134550000Y-116500000D03*
%TD*%
M02*
